<?xml version="1.0" encoding="UTF-8" standalone="no"?>
<!-- Created with Inkscape (http://www.inkscape.org/) -->

<svg
   width="5.3866749"
   height="6.2199054"
   viewBox="0 0 1.4252244 1.6456833"
   version="1.1"
   id="svg5"
   sodipodi:docname="bassClef_full.svg"
   inkscape:version="1.2.2 (b0a8486541, 2022-12-01)"
   xmlns:inkscape="http://www.inkscape.org/namespaces/inkscape"
   xmlns:sodipodi="http://sodipodi.sourceforge.net/DTD/sodipodi-0.dtd"
   xmlns="http://www.w3.org/2000/svg"
   xmlns:svg="http://www.w3.org/2000/svg">
  <sodipodi:namedview
     id="namedview996"
     pagecolor="#505050"
     bordercolor="#eeeeee"
     borderopacity="1"
     inkscape:showpageshadow="0"
     inkscape:pageopacity="0"
     inkscape:pagecheckerboard="0"
     inkscape:deskcolor="#505050"
     showgrid="false"
     inkscape:zoom="37.942699"
     inkscape:cx="2.6750864"
     inkscape:cy="3.1231305"
     inkscape:window-width="1440"
     inkscape:window-height="853"
     inkscape:window-x="0"
     inkscape:window-y="0"
     inkscape:window-maximized="1"
     inkscape:current-layer="svg5" />
  <defs
     id="defs2" />
  <g
     id="layer1"
     transform="translate(-80.531937,-56.883628)">
    <g
       aria-label="ð„¢"
       id="text592"
       style="font-size:2.05905px;line-height:1.22255px;font-family:monospace;-inkscape-font-specification:monospace;text-align:center;letter-spacing:0px;word-spacing:0px;text-anchor:middle;stroke-width:0.264583">
      <path
         d="m 80.531945,58.484099 c 0.199753,-0.134483 0.408177,-0.265316 0.566617,-0.449561 0.154975,-0.189215 0.259282,-0.428025 0.263181,-0.674681 0.0019,-0.150932 -0.0508,-0.32966 -0.200401,-0.395018 -0.12446,-0.04809 -0.267822,-0.0065 -0.37339,0.06703 -0.04874,0.03095 -0.133236,0.151014 -0.03363,0.165261 0.07799,-0.0161 0.171817,-0.03448 0.234741,0.03086 0.0782,0.07043 0.05986,0.207675 -0.02815,0.261693 -0.133848,0.09995 -0.363285,0.0094 -0.374301,-0.162918 -0.01815,-0.180172 0.115889,-0.343097 0.279807,-0.401644 0.220267,-0.08418 0.499158,-0.04239 0.655285,0.144719 0.122512,0.135684 0.149518,0.333002 0.10331,0.505295 -0.06086,0.222886 -0.217207,0.408881 -0.39504,0.550603 -0.211317,0.160478 -0.446865,0.285334 -0.683605,0.403574 -0.0048,-0.01507 -0.0096,-0.03014 -0.01443,-0.04521 z M 81.84356,57.07159 c 0.09229,-0.0057 0.149501,0.11708 0.08802,0.18508 -0.05764,0.07435 -0.197037,0.03707 -0.200745,-0.06023 -0.0088,-0.06468 0.04734,-0.127402 0.112725,-0.124855 z m 0,0.452991 c 0.09229,-0.0057 0.149501,0.117088 0.08802,0.18509 -0.05764,0.07435 -0.197037,0.03707 -0.200745,-0.06023 -0.0088,-0.06467 0.04734,-0.127409 0.112725,-0.124865 z"
         id="path1244" />
    </g>
  </g>
</svg>
