<?xml version="1.0" encoding="UTF-8"?>
<svg width="5.3867" height="6.2199" version="1.1" viewBox="0 0 1.4252 1.6457" xmlns="http://www.w3.org/2000/svg">
 <g transform="translate(-80.532 -56.884)">
  <g stroke-width=".26458" aria-label="ð„¢">
   <path d="m80.532 58.484c0.19975-0.13448 0.40818-0.26532 0.56662-0.44956 0.15498-0.18922 0.25928-0.42802 0.26318-0.67468 0.0019-0.15093-0.0508-0.32966-0.2004-0.39502-0.12446-0.04809-0.26782-0.0065-0.37339 0.06703-0.04874 0.03095-0.13324 0.15101-0.03363 0.16526 0.07799-0.0161 0.17182-0.03448 0.23474 0.03086 0.0782 0.07043 0.05986 0.20768-0.02815 0.26169-0.13385 0.09995-0.36328 0.0094-0.3743-0.16292-0.01815-0.18017 0.11589-0.3431 0.27981-0.40164 0.22027-0.08418 0.49916-0.04239 0.65528 0.14472 0.12251 0.13568 0.14952 0.333 0.10331 0.5053-0.06086 0.22289-0.21721 0.40888-0.39504 0.5506-0.21132 0.16048-0.44686 0.28533-0.6836 0.40357-0.0048-0.01507-0.0096-0.03014-0.01443-0.04521zm1.3116-1.4125c0.09229-0.0057 0.1495 0.11708 0.08802 0.18508-0.05764 0.07435-0.19704 0.03707-0.20074-0.06023-0.0088-0.06468 0.04734-0.1274 0.11272-0.12486zm0 0.45299c0.09229-0.0057 0.1495 0.11709 0.08802 0.18509-0.05764 0.07435-0.19704 0.03707-0.20074-0.06023-0.0088-0.06467 0.04734-0.12741 0.11272-0.12486z"/>
  </g>
 </g>
</svg>
