<?xml version="1.0" encoding="UTF-8" standalone="no"?>
<!-- Created with Inkscape (http://www.inkscape.org/) -->

<svg
   width="793.70081"
   height="1122.5197"
   viewBox="0 0 210 296.99999"
   version="1.1"
   id="svg5"
   inkscape:version="1.2.2 (b0a8486541, 2022-12-01)"
   sodipodi:docname="measure.svg"
   xmlns:inkscape="http://www.inkscape.org/namespaces/inkscape"
   xmlns:sodipodi="http://sodipodi.sourceforge.net/DTD/sodipodi-0.dtd"
   xmlns="http://www.w3.org/2000/svg"
   xmlns:svg="http://www.w3.org/2000/svg">
  <sodipodi:namedview
     id="namedview7"
     pagecolor="#505050"
     bordercolor="#eeeeee"
     borderopacity="1"
     inkscape:showpageshadow="0"
     inkscape:pageopacity="0"
     inkscape:pagecheckerboard="0"
     inkscape:deskcolor="#505050"
     inkscape:document-units="px"
     showgrid="false"
     inkscape:zoom="16"
     inkscape:cx="304.09375"
     inkscape:cy="210.15625"
     inkscape:window-width="1440"
     inkscape:window-height="853"
     inkscape:window-x="0"
     inkscape:window-y="0"
     inkscape:window-maximized="1"
     inkscape:current-layer="layer1" />
  <defs
     id="defs2">
    <inkscape:path-effect
       effect="bspline"
       id="path-effect883"
       is_visible="true"
       lpeversion="1"
       weight="33.333333"
       steps="2"
       helper_size="0"
       apply_no_weight="true"
       apply_with_weight="true"
       only_selected="false" />
    <inkscape:path-effect
       effect="bspline"
       id="path-effect862"
       is_visible="true"
       lpeversion="1"
       weight="33.333333"
       steps="2"
       helper_size="0"
       apply_no_weight="true"
       apply_with_weight="true"
       only_selected="false" />
  </defs>
  <g
     inkscape:label="Layer 1"
     inkscape:groupmode="layer"
     id="layer1">
    <g
       id="g574">
      <text
         xml:space="preserve"
         style="font-size:2.05905px;line-height:2.05905px;font-family:monospace;-inkscape-font-specification:monospace;text-align:center;letter-spacing:0px;word-spacing:0px;writing-mode:lr-tb;text-anchor:middle;stroke-width:0.264583"
         x="82.468185"
         y="51.997711"
         id="text456"
         transform="scale(0.99882627,1.0011751)"><tspan
           sodipodi:role="line"
           style="stroke-width:0.264583"
           x="82.468185"
           y="51.997711"
           id="tspan454">𝄢𝄚</tspan></text>
      <text
         xml:space="preserve"
         style="font-size:2.05905px;line-height:2.05905px;font-family:monospace;-inkscape-font-specification:monospace;text-align:center;letter-spacing:0px;word-spacing:0px;writing-mode:lr-tb;text-anchor:middle;fill:#f4eaea;fill-opacity:0.397756;stroke:none;stroke-width:0.0555625;stroke-dasharray:none;stroke-opacity:1"
         x="83.200172"
         y="49.988083"
         id="text460"
         transform="scale(0.99882627,1.0011751)"><tspan
           sodipodi:role="line"
           style="fill:#f4eaea;fill-opacity:0.397756;stroke:none;stroke-width:0.0555625;stroke-dasharray:none;stroke-opacity:1"
           x="83.200172"
           y="49.988083"
           id="tspan458">𝄚</tspan></text>
      <path
         style="fill:none;fill-opacity:0.397756;stroke:#fea75f;stroke-width:0.0264583;stroke-linecap:round;stroke-linejoin:round;stroke-miterlimit:0;stroke-dasharray:none;stroke-opacity:1"
         d="m 79.491427,50.190262 h 4.338792"
         id="path462"
         sodipodi:nodetypes="cc" />
      <text
         xml:space="preserve"
         style="font-size:2.05905px;line-height:2.05905px;font-family:monospace;-inkscape-font-specification:monospace;text-align:center;letter-spacing:0px;word-spacing:0px;writing-mode:lr-tb;text-anchor:middle;fill:#f4eaea;fill-opacity:0.397756;stroke:none;stroke-width:0.0555625;stroke-dasharray:none;stroke-opacity:1"
         x="83.200172"
         y="54.007309"
         id="text466"
         transform="scale(0.99882627,1.0011751)"><tspan
           sodipodi:role="line"
           style="fill:#f4eaea;fill-opacity:0.397756;stroke:none;stroke-width:0.0555625;stroke-dasharray:none;stroke-opacity:1"
           x="83.200172"
           y="54.007309"
           id="tspan464">𝄚</tspan></text>
      <path
         style="fill:none;fill-opacity:0.397756;stroke:#fea75f;stroke-width:0.0264583;stroke-linecap:round;stroke-linejoin:round;stroke-miterlimit:0;stroke-dasharray:none;stroke-opacity:1"
         d="m 79.491427,51.863834 h 4.338792"
         id="path468"
         sodipodi:nodetypes="cc" />
    </g>
    <g
       id="g584">
      <text
         xml:space="preserve"
         style="font-size:2.05905px;line-height:2.05905px;font-family:monospace;-inkscape-font-specification:monospace;text-align:center;letter-spacing:0px;word-spacing:0px;writing-mode:lr-tb;text-anchor:middle;stroke-width:0.264583"
         x="76.341949"
         y="51.997711"
         id="text678"
         transform="scale(0.99882626,1.0011751)"><tspan
           sodipodi:role="line"
           style="stroke-width:0.264583"
           x="76.341949"
           y="51.997711"
           id="tspan680">𝄞𝄚</tspan></text>
      <text
         xml:space="preserve"
         style="font-size:2.05905px;line-height:2.05905px;font-family:monospace;-inkscape-font-specification:monospace;text-align:center;letter-spacing:0px;word-spacing:0px;writing-mode:lr-tb;text-anchor:middle;fill:#f4eaea;fill-opacity:0.397756;stroke:none;stroke-width:0.0555625;stroke-dasharray:none;stroke-opacity:1"
         x="77.073936"
         y="49.988083"
         id="text1447"
         transform="scale(0.99882626,1.0011751)"><tspan
           sodipodi:role="line"
           style="fill:#f4eaea;fill-opacity:0.397756;stroke:none;stroke-width:0.0555625;stroke-dasharray:none;stroke-opacity:1"
           x="77.073936"
           y="49.988083"
           id="tspan1445">𝄚</tspan></text>
      <path
         style="fill:none;fill-opacity:0.397756;stroke:#fea75f;stroke-width:0.0264583;stroke-linecap:round;stroke-linejoin:round;stroke-miterlimit:0;stroke-dasharray:none;stroke-opacity:1"
         d="m 73.785759,49.295584 h 4.338792"
         id="path1518"
         sodipodi:nodetypes="cc" />
      <text
         xml:space="preserve"
         style="font-size:2.05905px;line-height:2.05905px;font-family:monospace;-inkscape-font-specification:monospace;text-align:center;letter-spacing:0px;word-spacing:0px;writing-mode:lr-tb;text-anchor:middle;fill:#f4eaea;fill-opacity:0.397756;stroke:none;stroke-width:0.0555625;stroke-dasharray:none;stroke-opacity:1"
         x="77.073936"
         y="54.007309"
         id="text298"
         transform="scale(0.99882626,1.0011751)"><tspan
           sodipodi:role="line"
           style="fill:#f4eaea;fill-opacity:0.397756;stroke:none;stroke-width:0.0555625;stroke-dasharray:none;stroke-opacity:1"
           x="77.073936"
           y="54.007309"
           id="tspan296">𝄚</tspan></text>
      <path
         style="fill:none;fill-opacity:0.397756;stroke:#fea75f;stroke-width:0.0264583;stroke-linecap:round;stroke-linejoin:round;stroke-miterlimit:0;stroke-dasharray:none;stroke-opacity:1"
         d="m 73.785759,52.892508 h 4.338792"
         id="path452"
         sodipodi:nodetypes="cc" />
    </g>
    <g
       aria-label="𝄞"
       id="text588"
       style="font-size:2.05905px;line-height:1.22256px;font-family:monospace;-inkscape-font-specification:monospace;text-align:center;letter-spacing:0px;word-spacing:0px;text-anchor:middle;stroke-width:0.264583"
       inkscape:export-filename="trebleClef.svg"
       inkscape:export-xdpi="32"
       inkscape:export-ydpi="32">
      <path
         d="m 75.011862,57.516633 c -0.09463,-0.330984 -0.11072,-0.725172 0.111249,-1.010835 0.0863,-0.160983 0.223795,-0.03821 0.257318,0.08838 0.178061,0.398361 0.06839,0.903292 -0.249144,1.200426 0.02402,0.115307 0.04805,0.230614 0.07207,0.345921 0.214938,-0.05089 0.422643,0.109586 0.489417,0.308154 0.09243,0.238248 -0.0043,0.551306 -0.252361,0.649758 -0.08014,0.06304 0.03188,0.231852 0.02612,0.337556 0.04179,0.159181 0.03769,0.355677 -0.104689,0.464897 -0.18747,0.157612 -0.549559,0.09338 -0.608932,-0.164239 -0.03763,-0.133516 0.0481,-0.309451 0.203368,-0.296921 0.183483,-0.0096 0.268713,0.266857 0.116455,0.366122 -0.04331,0.04513 -0.191595,0.0076 -0.07792,0.0802 0.159216,0.09099 0.380127,-0.01768 0.411388,-0.197224 0.04045,-0.186048 -0.04643,-0.366207 -0.07309,-0.547683 -0.373501,0.104285 -0.771315,-0.184464 -0.846675,-0.552574 -0.06186,-0.25043 0.03136,-0.510144 0.187098,-0.70689 0.100909,-0.131789 0.222146,-0.247382 0.338325,-0.365048 z m 0.05559,-0.05148 c 0.141787,-0.09725 0.220094,-0.263426 0.284146,-0.417989 0.04016,-0.100884 0.07091,-0.331181 -0.09458,-0.316322 -0.138866,0.05525 -0.183822,0.221567 -0.214975,0.353965 -0.02464,0.126711 -0.02374,0.259282 0.02541,0.380346 z m 0.117366,0.920396 c -0.167018,0.03858 -0.278476,0.252977 -0.173214,0.402298 0.0231,0.0568 0.224078,0.166251 0.05891,0.118647 -0.192231,-0.07593 -0.272387,-0.320274 -0.184251,-0.502411 0.03354,-0.126278 0.184304,-0.194334 0.244866,-0.269374 -0.01848,-0.09621 -0.03695,-0.192422 -0.05543,-0.288633 -0.234179,0.18948 -0.469133,0.445635 -0.463013,0.766151 0.0056,0.303718 0.32349,0.542864 0.617442,0.481671 0.108067,0.01246 0.08847,-0.06072 0.06861,-0.131886 -0.03797,-0.192154 -0.07594,-0.384309 -0.113915,-0.576463 z m 0.199728,0.667132 c 0.241213,-0.0957 0.277656,-0.485548 0.05357,-0.620834 -0.05873,-0.03996 -0.234349,-0.105944 -0.174544,0.01961 0.04033,0.200407 0.08065,0.400815 0.120978,0.601222 z"
         id="path1247" />
    </g>
    <g
       aria-label="𝄢"
       id="text592"
       style="font-size:2.05905px;line-height:1.22255px;font-family:monospace;-inkscape-font-specification:monospace;text-align:center;letter-spacing:0px;word-spacing:0px;text-anchor:middle;stroke-width:0.264583"
       inkscape:export-filename="bassClef.svg"
       inkscape:export-xdpi="32"
       inkscape:export-ydpi="32">
      <path
         d="m 80.531945,58.484099 c 0.199753,-0.134483 0.408177,-0.265316 0.566617,-0.449561 0.154975,-0.189215 0.259282,-0.428025 0.263181,-0.674681 0.0019,-0.150932 -0.0508,-0.32966 -0.200401,-0.395018 -0.12446,-0.04809 -0.267822,-0.0065 -0.37339,0.06703 -0.04874,0.03095 -0.133236,0.151014 -0.03363,0.165261 0.07799,-0.0161 0.171817,-0.03448 0.234741,0.03086 0.0782,0.07043 0.05986,0.207675 -0.02815,0.261693 -0.133848,0.09995 -0.363285,0.0094 -0.374301,-0.162918 -0.01815,-0.180172 0.115889,-0.343097 0.279807,-0.401644 0.220267,-0.08418 0.499158,-0.04239 0.655285,0.144719 0.122512,0.135684 0.149518,0.333002 0.10331,0.505295 -0.06086,0.222886 -0.217207,0.408881 -0.39504,0.550603 -0.211317,0.160478 -0.446865,0.285334 -0.683605,0.403574 -0.0048,-0.01507 -0.0096,-0.03014 -0.01443,-0.04521 z M 81.84356,57.07159 c 0.09229,-0.0057 0.149501,0.11708 0.08802,0.18508 -0.05764,0.07435 -0.197037,0.03707 -0.200745,-0.06023 -0.0088,-0.06468 0.04734,-0.127402 0.112725,-0.124855 z m 0,0.452991 c 0.09229,-0.0057 0.149501,0.117088 0.08802,0.18509 -0.05764,0.07435 -0.197037,0.03707 -0.200745,-0.06023 -0.0088,-0.06467 0.04734,-0.127409 0.112725,-0.124865 z"
         id="path1244" />
    </g>
  </g>
</svg>
