<?xml version="1.0" encoding="UTF-8" standalone="no"?>
<!-- Created with Inkscape (http://www.inkscape.org/) -->

<svg
   width="4.7625875"
   height="13.444527"
   viewBox="0 0 1.2601013 3.5571977"
   version="1.1"
   id="svg5"
   inkscape:version="1.2.2 (b0a8486541, 2022-12-01)"
   sodipodi:docname="measure.svg"
   xmlns:inkscape="http://www.inkscape.org/namespaces/inkscape"
   xmlns:sodipodi="http://sodipodi.sourceforge.net/DTD/sodipodi-0.dtd"
   xmlns="http://www.w3.org/2000/svg"
   xmlns:svg="http://www.w3.org/2000/svg">
  <sodipodi:namedview
     id="namedview7"
     pagecolor="#505050"
     bordercolor="#eeeeee"
     borderopacity="1"
     inkscape:showpageshadow="0"
     inkscape:pageopacity="0"
     inkscape:pagecheckerboard="0"
     inkscape:deskcolor="#505050"
     inkscape:document-units="px"
     showgrid="false"
     inkscape:zoom="11.313709"
     inkscape:cx="300.21102"
     inkscape:cy="207.13809"
     inkscape:window-width="1440"
     inkscape:window-height="853"
     inkscape:window-x="0"
     inkscape:window-y="0"
     inkscape:window-maximized="1"
     inkscape:current-layer="layer1" />
  <defs
     id="defs2" />
  <g
     inkscape:label="Layer 1"
     inkscape:groupmode="layer"
     id="layer1"
     transform="translate(-74.467118,-56.429)">
    <g
       aria-label="ð„ž"
       id="text588"
       style="font-size:2.05905px;line-height:1.22256px;font-family:monospace;-inkscape-font-specification:monospace;text-align:center;letter-spacing:0px;word-spacing:0px;text-anchor:middle;stroke-width:0.264583">
      <path
         d="m 75.011862,57.516633 c -0.09463,-0.330984 -0.11072,-0.725172 0.111249,-1.010835 0.0863,-0.160983 0.223795,-0.03821 0.257318,0.08838 0.178061,0.398361 0.06839,0.903292 -0.249144,1.200426 0.02402,0.115307 0.04805,0.230614 0.07207,0.345921 0.214938,-0.05089 0.422643,0.109586 0.489417,0.308154 0.09243,0.238248 -0.0043,0.551306 -0.252361,0.649758 -0.08014,0.06304 0.03188,0.231852 0.02612,0.337556 0.04179,0.159181 0.03769,0.355677 -0.104689,0.464897 -0.18747,0.157612 -0.549559,0.09338 -0.608932,-0.164239 -0.03763,-0.133516 0.0481,-0.309451 0.203368,-0.296921 0.183483,-0.0096 0.268713,0.266857 0.116455,0.366122 -0.04331,0.04513 -0.191595,0.0076 -0.07792,0.0802 0.159216,0.09099 0.380127,-0.01768 0.411388,-0.197224 0.04045,-0.186048 -0.04643,-0.366207 -0.07309,-0.547683 -0.373501,0.104285 -0.771315,-0.184464 -0.846675,-0.552574 -0.06186,-0.25043 0.03136,-0.510144 0.187098,-0.70689 0.100909,-0.131789 0.222146,-0.247382 0.338325,-0.365048 z m 0.05559,-0.05148 c 0.141787,-0.09725 0.220094,-0.263426 0.284146,-0.417989 0.04016,-0.100884 0.07091,-0.331181 -0.09458,-0.316322 -0.138866,0.05525 -0.183822,0.221567 -0.214975,0.353965 -0.02464,0.126711 -0.02374,0.259282 0.02541,0.380346 z m 0.117366,0.920396 c -0.167018,0.03858 -0.278476,0.252977 -0.173214,0.402298 0.0231,0.0568 0.224078,0.166251 0.05891,0.118647 -0.192231,-0.07593 -0.272387,-0.320274 -0.184251,-0.502411 0.03354,-0.126278 0.184304,-0.194334 0.244866,-0.269374 -0.01848,-0.09621 -0.03695,-0.192422 -0.05543,-0.288633 -0.234179,0.18948 -0.469133,0.445635 -0.463013,0.766151 0.0056,0.303718 0.32349,0.542864 0.617442,0.481671 0.108067,0.01246 0.08847,-0.06072 0.06861,-0.131886 -0.03797,-0.192154 -0.07594,-0.384309 -0.113915,-0.576463 z m 0.199728,0.667132 c 0.241213,-0.0957 0.277656,-0.485548 0.05357,-0.620834 -0.05873,-0.03996 -0.234349,-0.105944 -0.174544,0.01961 0.04033,0.200407 0.08065,0.400815 0.120978,0.601222 z"
         id="path1247" />
    </g>
  </g>
</svg>
